<svg width="200" height="76" viewBox="0 0 200 76" fill="none" xmlns="http://www.w3.org/2000/svg">
<g id="logo">
<g id="surface1">
<g id="Group">
<path id="Vector" d="M71.5326 17.0108C71.15 16.9198 70.7608 16.8884 70.3684 16.9167C69.976 16.9449 69.5966 17.0328 69.2336 17.1772C68.8706 17.3216 68.537 17.5194 68.2394 17.7643C67.9418 18.0123 67.69 18.2979 67.4873 18.6213C67.4317 18.7437 67.3597 18.8536 67.3041 18.9635C67.2028 19.1518 67.1341 19.3527 67.0883 19.5631C67.0294 19.7859 66.9967 20.0151 66.9837 20.2443C66.9706 20.4766 66.9837 20.7058 67.0164 20.9349C67.0523 21.1641 67.1112 21.387 67.1929 21.6036C67.2714 21.8202 67.3761 22.0305 67.4971 22.2283C67.6214 22.4261 67.7652 22.6113 67.9255 22.7808C68.089 22.9535 68.2656 23.1073 68.4585 23.2454C68.6515 23.3836 68.8575 23.5028 69.0766 23.6033C69.2925 23.7006 69.5181 23.7791 69.7536 23.8356C70.1264 23.9235 70.509 23.9518 70.8949 23.9267C71.2808 23.8984 71.6503 23.8168 72.0101 23.6786C72.3698 23.5405 72.6968 23.3522 72.9944 23.1167C73.292 22.8781 73.5438 22.605 73.7531 22.2942L74.0246 21.7731H74.0376C74.1096 21.6099 74.1685 21.4435 74.211 21.2708C74.2666 21.0448 74.2993 20.8188 74.3091 20.5865C74.3189 20.3573 74.3058 20.1281 74.2698 19.899C74.2339 19.6729 74.175 19.45 74.0932 19.2334C74.0115 19.0168 73.9068 18.8096 73.7826 18.6119C73.6583 18.4141 73.5177 18.232 73.3542 18.0593C73.1939 17.8898 73.0173 17.736 72.8244 17.5979C72.6314 17.4597 72.4254 17.3436 72.2063 17.2431C71.9904 17.1458 71.7648 17.0673 71.5326 17.0108Z" fill="white"/>
</g>
<path id="Vector_2" d="M71.2776 52.9021C70.8949 52.811 70.5058 52.7796 70.1133 52.811C69.7209 52.8393 69.3415 52.924 68.9785 53.0716C68.6123 53.216 68.282 53.4106 67.9844 53.6586C67.6868 53.9035 67.435 54.1892 67.2322 54.5125L67.0327 54.8547C66.9477 55.0493 66.8757 55.2502 66.8202 55.4543C66.7122 55.8624 66.6795 56.2736 66.7253 56.6943C66.7711 57.1118 66.8921 57.5074 67.0883 57.8841C67.2813 58.2608 67.5363 58.5936 67.8568 58.8824C68.1741 59.1712 68.5338 59.3972 68.9393 59.5636C69.3415 59.7268 69.7634 59.821 70.1984 59.8399C70.6366 59.8618 71.065 59.8085 71.4836 59.6829C71.9022 59.5573 72.2848 59.3627 72.6315 59.1053C72.9748 58.851 73.2659 58.5433 73.4981 58.1855C73.5962 58.0222 73.6812 57.8433 73.7695 57.68H73.7826C73.8546 57.5168 73.8971 57.3535 73.9527 57.1746C74.0115 56.9517 74.0442 56.7226 74.0573 56.4934C74.0671 56.2611 74.054 56.0319 74.0181 55.8027C73.9821 55.5736 73.9232 55.3507 73.8415 55.1341C73.7597 54.9143 73.6583 54.7071 73.5341 54.5094C73.4098 54.3116 73.2659 54.1264 73.1057 53.9569C72.9421 53.7842 72.7655 53.6304 72.5693 53.4922C72.3764 53.3541 72.1704 53.2348 71.9545 53.1375C71.7354 53.037 71.5098 52.9586 71.2776 52.9021Z" fill="white"/>
<g id="Group_2">
<path id="Vector_3" d="M60.5674 61.7234C60.0539 61.6198 59.5438 61.6229 59.0336 61.7297C58.5202 61.8396 58.0558 62.0405 57.6339 62.3356C56.2048 63.3119 54.7005 64.1658 53.1242 64.8972C51.5447 65.6287 49.9161 66.2314 48.2319 66.6991C46.5477 67.17 44.834 67.5028 43.0942 67.6943C41.3512 67.8889 39.6048 67.9392 37.8552 67.8513L37.3549 67.8261C35.9192 67.732 34.4934 67.5467 33.0839 67.2642C16.0948 63.8926 5.18835 47.9608 8.7039 31.6869C12.2227 15.4129 28.8391 4.9403 45.8151 8.31187C49.9717 9.13122 53.7979 10.6977 57.2906 13.0082H57.3069C57.5129 13.1966 57.7419 13.3535 57.9904 13.4885C58.324 13.658 58.6739 13.7805 59.0434 13.8558C59.4555 13.9343 59.8675 13.9469 60.2829 13.8904C60.6982 13.837 61.0939 13.7177 61.4667 13.5356C61.8395 13.3504 62.1731 13.115 62.4641 12.8261C62.7519 12.5342 62.9874 12.2077 63.1607 11.8436C63.3373 11.4763 63.4452 11.0964 63.4845 10.6946C63.527 10.2959 63.4976 9.90034 63.3994 9.50794C63.3013 9.11867 63.1378 8.75451 62.9122 8.41547C62.6833 8.07643 62.4053 7.78448 62.0783 7.53333H62.0619L61.8199 7.37009L61.7643 7.32928C57.3821 4.37523 52.5683 2.37865 47.3227 1.33642C26.334 -2.82625 5.78354 10.1013 1.42752 30.2397C-2.93178 50.3781 10.568 70.0644 31.573 74.2428C34.1794 74.7608 36.812 75.0213 39.4708 75.0182C42.1328 75.0182 44.7654 74.7576 47.3685 74.2397C49.9717 73.7185 52.493 72.9494 54.9327 71.9292C57.3723 70.912 59.6779 69.6658 61.8493 68.1934L61.9213 68.1526L62.0783 68.0302L62.1469 67.9894C62.8337 67.4526 63.2686 66.7682 63.4583 65.9394C63.5074 65.7103 63.5335 65.478 63.5335 65.2457C63.5368 65.0102 63.5139 64.7779 63.4681 64.5487C63.4223 64.3196 63.3504 64.0967 63.2588 63.8769C63.1673 63.6603 63.0561 63.4563 62.922 63.2585C62.7879 63.0639 62.6342 62.8818 62.4641 62.7154C62.2908 62.549 62.1044 62.3983 61.9017 62.2665C61.7022 62.1346 61.4863 62.0216 61.264 61.9306C61.0383 61.8396 60.8061 61.7705 60.5674 61.7234Z" fill="url(#paint0_linear)"/>
</g>
<path id="Vector_4" d="M32.9695 59.033C34.912 59.5541 36.8938 59.8272 38.9116 59.8555C40.9294 59.8837 42.9177 59.664 44.8733 59.1962L45.7007 58.9765H45.7138C46.5804 58.7379 47.4274 58.4554 48.2613 58.1226C49.092 57.7898 49.8998 57.4131 50.6879 56.9925C51.4728 56.5718 52.2315 56.1072 52.9607 55.6049C53.6933 55.0995 54.3899 54.5564 55.057 53.9725C55.7209 53.3917 56.3488 52.7764 56.9407 52.1235C57.5326 51.4736 58.0853 50.7924 58.5954 50.0798C59.1056 49.3703 59.57 48.6326 59.9919 47.8698C60.4137 47.1069 60.7865 46.3221 61.1136 45.5184C61.4406 44.7117 61.7218 43.8923 61.9508 43.0573C62.1797 42.2222 62.3563 41.3777 62.4838 40.5239C62.6114 39.67 62.6898 38.8098 62.7127 37.9465C62.7389 37.0832 62.7127 36.2231 62.6343 35.3629C62.5558 34.5027 62.425 33.6489 62.2451 32.8044C62.062 31.9568 61.833 31.1249 61.5518 30.3024C61.2705 29.4831 60.9402 28.6825 60.5642 27.8977C60.1881 27.1129 59.7662 26.3532 59.2986 25.6155C58.8276 24.8777 58.3175 24.1683 57.7648 23.4871C57.2121 22.8058 56.6202 22.156 55.989 21.5407C55.3579 20.9254 54.6907 20.3446 53.9909 19.8015C53.291 19.2616 52.5585 18.7593 51.7965 18.2947C51.0378 17.8332 50.2497 17.4157 49.4386 17.039C48.6276 16.6654 47.797 16.3358 46.9467 16.0501C46.0964 15.7676 45.2331 15.5321 44.3533 15.3438C43.4736 15.1554 42.5874 15.0142 41.6913 14.9231C40.7953 14.8352 39.8992 14.7913 38.9966 14.8007C38.0973 14.8101 37.2012 14.8666 36.3052 14.9734C35.4124 15.0832 34.5294 15.237 33.653 15.4442C32.7798 15.6483 31.9197 15.8994 31.0727 16.2008C30.229 16.499 29.4049 16.8444 28.6004 17.2336C27.7991 17.626 27.0208 18.0593 26.2686 18.5333C25.5198 19.0105 24.797 19.5253 24.1103 20.0809C23.4202 20.6366 22.7662 21.2299 22.1481 21.8578L21.5333 22.5107C21.4548 22.6112 21.3828 22.7148 21.3207 22.8247C21.082 23.2234 20.925 23.6472 20.8465 24.0992C20.768 24.5513 20.7746 25.0033 20.8661 25.4554C20.9577 25.9043 21.1245 26.3249 21.3763 26.7174C21.6248 27.1066 21.9355 27.4457 22.3116 27.7282C22.6877 28.0139 23.103 28.2242 23.5576 28.3655C24.0122 28.5067 24.4798 28.5664 24.9573 28.5476C25.4347 28.5256 25.8926 28.4283 26.3341 28.2493C26.7723 28.0704 27.168 27.8224 27.5146 27.5085L27.8842 27.1129C28.5251 26.4599 29.2185 25.8666 29.9673 25.3361C30.7195 24.8024 31.5109 24.3378 32.3481 23.9422C33.1853 23.5467 34.0519 23.2234 34.948 22.9785C35.8473 22.7305 36.7597 22.5641 37.6885 22.4762C38.6173 22.3852 39.546 22.3757 40.4748 22.448C41.4068 22.5202 42.3225 22.6708 43.2251 22.9C44.1244 23.1292 44.9976 23.4337 45.8446 23.8135C46.6883 24.1934 47.4928 24.6423 48.2515 25.1603C49.0135 25.6783 49.7199 26.2559 50.3707 26.8963C51.0247 27.5367 51.6101 28.2273 52.1334 28.9682C52.6566 29.7122 53.1046 30.4908 53.4807 31.3101C53.8568 32.1295 54.1544 32.9739 54.3702 33.8435C54.5893 34.7131 54.7234 35.5952 54.7757 36.4868C54.8281 37.3815 54.7986 38.273 54.6809 39.1583C54.5665 40.0467 54.3702 40.9194 54.0923 41.7733C53.8143 42.6272 53.4578 43.4497 53.0261 44.2408C52.5945 45.035 52.0908 45.7853 51.5185 46.4916C50.943 47.1948 50.3118 47.8478 49.6152 48.4442C48.9187 49.0407 48.173 49.5712 47.3784 50.0421C46.5837 50.5099 45.7498 50.9054 44.8799 51.2288C44.0132 51.5553 43.1204 51.8001 42.2015 51.9728C41.2858 52.1423 40.3636 52.2333 39.4283 52.2459C38.4963 52.2553 37.5708 52.1863 36.6485 52.0387C35.7296 51.888 34.8303 51.662 33.9506 51.3606C32.008 50.6951 30.2748 49.6937 28.7541 48.3563C28.741 48.3563 28.741 48.3563 28.741 48.3438L28.414 48.055C28.2341 47.9074 28.0444 47.7756 27.8417 47.6594C27.4329 47.4303 26.9947 47.2733 26.527 47.1948C26.0594 47.1132 25.5917 47.1132 25.124 47.1948C24.6564 47.2764 24.2182 47.4334 23.8094 47.6626C23.4006 47.8949 23.0474 48.1868 22.7465 48.5416C22.449 48.8932 22.22 49.2856 22.0696 49.7188C21.9159 50.1489 21.844 50.5915 21.857 51.0467C21.8701 51.5019 21.965 51.9414 22.1448 52.3621C22.3214 52.7859 22.57 53.1657 22.8872 53.5016C23.0213 53.6617 23.175 53.803 23.3417 53.9254H23.3581C26.1313 56.3709 29.3362 58.0724 32.9695 59.033Z" fill="url(#paint1_linear)"/>
<path id="Vector_5" d="M46.2566 36.4115C46.2043 36.0379 46.1193 35.6737 46.0048 35.319C45.8871 34.9611 45.7399 34.6158 45.5633 34.283C45.3867 33.9471 45.1807 33.6301 44.9485 33.3318C44.7163 33.0305 44.458 32.7511 44.1767 32.4937C43.8955 32.2331 43.5914 32.0008 43.2709 31.7905C42.9471 31.5801 42.607 31.398 42.2505 31.2442C41.8973 31.0873 41.5311 30.9617 41.1517 30.8675C40.7756 30.7733 40.393 30.7074 40.0038 30.6729C39.6147 30.6415 39.2255 30.6383 38.8364 30.6697C38.4472 30.698 38.0646 30.7576 37.6852 30.8487C37.3059 30.9429 36.9396 31.0621 36.5831 31.2128C36.2267 31.3635 35.8833 31.5425 35.5595 31.7496C35.2325 31.9568 34.9284 32.186 34.6438 32.4434C34.3561 32.6977 34.0977 32.9771 33.8622 33.2722C33.6235 33.5704 33.4175 33.8875 33.2344 34.2171C33.0545 34.5499 32.9041 34.8921 32.7831 35.2499C31.4161 35.9877 29.5389 36.4366 27.4459 36.4366C25.6506 36.4366 23.9991 36.0975 22.7008 35.5356C22.3737 34.9925 21.9224 34.5718 21.3501 34.2673C21.0689 34.1072 20.768 33.9911 20.4508 33.9126C20.2644 33.8718 20.0747 33.8435 19.8818 33.831C19.352 33.7808 18.8385 33.8404 18.3349 34.0068C17.8346 34.1732 17.3898 34.4337 17.0072 34.7853H16.9908L16.7227 35.071C16.5755 35.2248 16.4545 35.3943 16.3499 35.5764C16.2321 35.7773 16.134 35.9877 16.0588 36.2074C15.9803 36.4272 15.928 36.6532 15.8986 36.8824C15.8691 37.1115 15.8626 37.3438 15.8789 37.573C15.8986 37.8053 15.9378 38.0313 16.0032 38.2542C16.0653 38.4771 16.1536 38.6937 16.2616 38.9009C16.3695 39.105 16.497 39.3027 16.6475 39.4848C16.7946 39.6669 16.9614 39.8333 17.1445 39.9839C17.3244 40.1346 17.5239 40.2696 17.7332 40.3826C18.4003 40.7468 19.1165 40.8912 19.8818 40.819C20.0747 40.8002 20.2644 40.7688 20.4508 40.7248C21.046 40.5804 21.566 40.3136 22.0173 39.918L22.4326 39.4942C22.4326 39.4879 22.4359 39.4817 22.4457 39.4817L22.7008 39.1144C23.9991 38.5399 25.6506 38.1977 27.4459 38.1977C29.5389 38.1977 31.4161 38.6498 32.7831 39.4C32.9204 39.7893 33.0937 40.1597 33.303 40.5176C33.5123 40.8755 33.7543 41.2114 34.029 41.5253C34.3037 41.8424 34.6046 42.1281 34.9349 42.3886C35.2619 42.6523 35.6151 42.8815 35.9879 43.0824C36.3607 43.2802 36.7499 43.4434 37.1554 43.5753C37.5609 43.704 37.9763 43.7982 38.3981 43.8547C38.8233 43.9143 39.2484 43.9331 39.6735 43.9143C40.102 43.8955 40.5238 43.839 40.9391 43.7479C41.3545 43.6538 41.76 43.525 42.1524 43.3618C42.5416 43.1986 42.9144 43.0008 43.2676 42.7716C43.6208 42.5393 43.9511 42.2819 44.2552 41.9931C44.5594 41.7043 44.8308 41.3903 45.0761 41.0544C45.3181 40.7185 45.5274 40.3638 45.704 39.9902C45.8806 39.6135 46.0179 39.2305 46.1193 38.8318C46.2174 38.4331 46.2795 38.0282 46.3024 37.6201C46.3286 37.212 46.3122 36.8039 46.2566 36.3958V36.4115Z" fill="white"/>
<g id="Group_3">
<g id="Group_4">
<path id="Vector_6" d="M88.7212 26.9337V34.7882L82.838 26.9337H80.2316V39.811H83.0669V31.7713L89.1398 39.811H91.5762V26.9337H88.7212Z" fill="white"/>
</g>
</g>
<g id="Group_5">
<g id="Group_6">
<path id="Vector_7" d="M99.3743 37.2368V34.5873H104.028V32.0664H99.3743V29.5111H104.528V26.9337H96.4801V39.811H104.738V37.2368H99.3743Z" fill="white"/>
</g>
</g>
<g id="Group_7">
<g id="Group_8">
<path id="Vector_8" d="M118.266 26.9337H107.899V29.5268H111.637V39.811H114.528V29.5268H118.266V26.9337Z" fill="white"/>
</g>
</g>
<g id="Group_9">
<g id="Group_10">
<path id="Vector_9" d="M137.159 26.9337L134.573 35.4882L130.969 27.0813H129.994L126.465 35.5071L123.823 26.9337H120.756L124.971 39.811H127.558L130.472 32.6001L133.461 39.811H136.047L140.188 26.9337H137.159Z" fill="white"/>
</g>
</g>
<g id="Group_11">
<g id="Group_12">
<path id="Vector_10" d="M143.846 39.811H146.741V26.9337H143.846V39.811Z" fill="white"/>
</g>
</g>
<g id="Group_13">
<g id="Group_14">
<path id="Vector_11" d="M154.997 37.2368L160.537 27.4486V26.9337H150.935V29.5268H156.223L150.628 39.406V39.811H160.766V37.2368H154.997Z" fill="white"/>
</g>
</g>
<g id="Group_15">
<g id="Group_16">
<path id="Vector_12" d="M171.86 33.3347C172.723 32.71 173.164 31.8656 173.164 30.8359C173.164 28.7734 171.382 27.3387 168.776 27.3387C166.169 27.3387 164.367 28.7922 164.367 30.8359C164.367 31.8467 164.809 32.6724 165.669 33.3191C164.56 33.9971 164.024 34.9358 164.024 36.1318C164.024 38.4329 165.957 40.0308 168.756 40.0308C171.552 40.0308 173.527 38.4141 173.527 36.1318C173.527 34.9358 172.971 33.9971 171.86 33.3347ZM168.776 29.4734C169.789 29.4734 170.499 30.0793 170.499 30.9081C170.499 31.7369 169.789 32.3427 168.776 32.3427C167.759 32.3427 167.033 31.7369 167.033 30.9081C167.033 30.0793 167.759 29.4734 168.776 29.4734ZM168.776 37.7862C167.569 37.7862 166.745 37.0893 166.745 36.0942C166.745 35.1022 167.569 34.4021 168.776 34.4021C170.002 34.4021 170.807 35.1022 170.807 36.0942C170.807 37.0893 170.002 37.7862 168.776 37.7862Z" fill="white"/>
</g>
</g>
<g id="Group_17">
<g id="Group_18">
<path id="Vector_13" d="M184.966 33.3347C185.829 32.71 186.271 31.8656 186.271 30.8359C186.271 28.7734 184.488 27.3387 181.882 27.3387C179.276 27.3387 177.474 28.7922 177.474 30.8359C177.474 31.8467 177.915 32.6724 178.775 33.3191C177.667 33.9971 177.13 34.9358 177.13 36.1318C177.13 38.4329 179.063 40.0308 181.862 40.0308C184.658 40.0308 186.634 38.4141 186.634 36.1318C186.634 34.9358 186.078 33.9971 184.966 33.3347ZM181.882 29.4734C182.896 29.4734 183.605 30.0793 183.605 30.9081C183.605 31.7369 182.896 32.3427 181.882 32.3427C180.865 32.3427 180.139 31.7369 180.139 30.9081C180.139 30.0793 180.865 29.4734 181.882 29.4734ZM181.882 37.7862C180.675 37.7862 179.851 37.0893 179.851 36.0942C179.851 35.1022 180.675 34.4021 181.882 34.4021C183.108 34.4021 183.913 35.1022 183.913 36.0942C183.913 37.0893 183.108 37.7862 181.882 37.7862Z" fill="white"/>
</g>
</g>
<g id="Group_19">
<g id="Group_20">
<path id="Vector_14" d="M198.072 33.3347C198.935 32.71 199.377 31.8656 199.377 30.8359C199.377 28.7734 197.595 27.3387 194.988 27.3387C192.382 27.3387 190.58 28.7922 190.58 30.8359C190.58 31.8467 191.021 32.6724 191.881 33.3191C190.773 33.9971 190.237 34.9358 190.237 36.1318C190.237 38.4329 192.169 40.0308 194.969 40.0308C197.765 40.0308 199.74 38.4141 199.74 36.1318C199.74 34.9358 199.184 33.9971 198.072 33.3347ZM194.988 29.4734C196.002 29.4734 196.712 30.0793 196.712 30.9081C196.712 31.7369 196.002 32.3427 194.988 32.3427C193.971 32.3427 193.245 31.7369 193.245 30.9081C193.245 30.0793 193.971 29.4734 194.988 29.4734ZM194.988 37.7862C193.782 37.7862 192.957 37.0893 192.957 36.0942C192.957 35.1022 193.782 34.4021 194.988 34.4021C196.215 34.4021 197.019 35.1022 197.019 36.0942C197.019 37.0893 196.215 37.7862 194.988 37.7862Z" fill="white"/>
</g>
</g>
<g id="Group_21">
<g id="Group_22">
<path id="Vector_15" d="M81.242 45.0477H79.4335V50.2589H81.242C82.8412 50.2589 83.9956 49.1633 83.9956 47.6533C83.9956 46.1496 82.8412 45.054 81.242 45.054V45.0477ZM81.2256 49.6499H80.117V45.6662H81.2256C82.4455 45.6662 83.3056 46.5075 83.3056 47.6533C83.3056 48.8054 82.4455 49.6499 81.2256 49.6499Z" fill="white"/>
</g>
</g>
<g id="Group_23">
<g id="Group_24">
<path id="Vector_16" d="M86.3406 50.2589H87.0241V45.0477H86.3406V50.2589Z" fill="white"/>
</g>
</g>
<g id="Group_25">
<g id="Group_26">
<path id="Vector_17" d="M91.9264 47.6753V48.2938H94.0881C93.8952 49.1414 93.1103 49.7064 92.1194 49.7064C90.893 49.7064 90.0558 48.8651 90.0558 47.6596C90.0558 46.4604 90.9159 45.6128 92.1194 45.6128C93.0351 45.6128 93.8101 46.112 94.0423 46.8717H94.7487C94.5067 45.7541 93.4079 44.9724 92.103 44.9724C90.5202 44.9724 89.3658 46.112 89.3658 47.6596C89.3658 49.2104 90.5202 50.3468 92.1194 50.3468C93.6859 50.3468 94.8043 49.245 94.8337 47.6753H91.9264Z" fill="white"/>
</g>
</g>
<g id="Group_27">
<g id="Group_28">
<path id="Vector_18" d="M97.1397 50.2589H97.8232V45.0477H97.1397V50.2589Z" fill="white"/>
</g>
</g>
<g id="Group_29">
<g id="Group_30">
<path id="Vector_19" d="M103.935 45.0477H99.9555V45.6662H101.607V50.2589H102.281V45.6662H103.935V45.0477Z" fill="white"/>
</g>
</g>
<g id="Group_31">
<g id="Group_32">
<path id="Vector_20" d="M109.857 50.2589H110.596L108.313 45.0477H107.678L105.458 50.2589H106.181L106.707 49.0158H109.323L109.857 50.2589ZM108.002 45.9487L109.065 48.413H106.962L108.002 45.9487Z" fill="white"/>
</g>
</g>
<g id="Group_33">
<g id="Group_34">
<path id="Vector_21" d="M113.374 49.6499V45.0477H112.691V50.2589H115.755V49.6499H113.374Z" fill="white"/>
</g>
</g>
<g id="Group_35">
<g id="Group_36">
<path id="Vector_22" d="M124.935 50.2589H125.674L123.391 45.0477H122.757L120.536 50.2589H121.259L121.786 49.0158H124.402L124.935 50.2589ZM123.081 45.9487L124.144 48.413H122.041L123.081 45.9487Z" fill="white"/>
</g>
</g>
<g id="Group_37">
<g id="Group_38">
<path id="Vector_23" d="M129.392 50.3249C130.471 50.3249 131.308 49.7661 131.308 48.7835C131.308 47.6973 130.347 47.4807 129.493 47.2798C128.793 47.1229 128.165 46.9753 128.165 46.4102C128.165 45.9111 128.662 45.6129 129.323 45.6129C129.98 45.6129 130.477 45.9488 130.477 46.5295H131.151C131.151 45.5815 130.461 44.9882 129.336 44.9882C128.214 44.9882 127.492 45.5313 127.492 46.4322C127.492 47.4745 128.414 47.6911 129.251 47.8763C129.957 48.0395 130.602 48.1808 130.602 48.793C130.602 49.3423 130.065 49.6845 129.385 49.6845C128.633 49.6845 128.08 49.3047 128.08 48.658H127.384C127.384 49.6845 128.198 50.3249 129.392 50.3249Z" fill="white"/>
</g>
</g>
<g id="Group_39">
<g id="Group_40">
<path id="Vector_24" d="M135.245 50.3249C136.324 50.3249 137.161 49.7661 137.161 48.7835C137.161 47.6973 136.199 47.4807 135.346 47.2798C134.646 47.1229 134.018 46.9753 134.018 46.4102C134.018 45.9111 134.515 45.6129 135.176 45.6129C135.833 45.6129 136.33 45.9488 136.33 46.5295H137.004C137.004 45.5815 136.314 44.9882 135.189 44.9882C134.067 44.9882 133.344 45.5313 133.344 46.4322C133.344 47.4745 134.267 47.6911 135.104 47.8763C135.81 48.0395 136.455 48.1808 136.455 48.793C136.455 49.3423 135.918 49.6845 135.238 49.6845C134.486 49.6845 133.933 49.3047 133.933 48.658H133.237C133.237 49.6845 134.051 50.3249 135.245 50.3249Z" fill="white"/>
</g>
</g>
<g id="Group_41">
<g id="Group_42">
<path id="Vector_25" d="M140.159 49.6342V47.8825H142.347V47.2798H140.159V45.6724H142.55V45.0477H139.475V50.2589H142.635V49.6342H140.159Z" fill="white"/>
</g>
</g>
<g id="Group_43">
<g id="Group_44">
<path id="Vector_26" d="M148.395 45.0477H144.415V45.6662H146.066V50.2589H146.74V45.6662H148.395V45.0477Z" fill="white"/>
</g>
</g>
<g id="Group_45">
<g id="Group_46">
<path id="Vector_27" d="M160.117 50.2589L159.217 45.0477H158.544L156.742 48.8745L154.95 45.0477H154.292L153.377 50.2589H154.073L154.789 46.1936L156.657 50.1334H156.843L158.714 46.1936L159.42 50.2589H160.117Z" fill="white"/>
</g>
</g>
<g id="Group_47">
<g id="Group_48">
<path id="Vector_28" d="M166.216 50.2589H166.955L164.672 45.0477H164.038L161.817 50.2589H162.54L163.066 49.0158H165.683L166.216 50.2589ZM164.361 45.9487L165.424 48.413H163.321L164.361 45.9487Z" fill="white"/>
</g>
</g>
<g id="Group_49">
<g id="Group_50">
<path id="Vector_29" d="M172.713 45.0477V49.066L169.671 45.0477H169.05V50.2589H169.717V46.1936L172.804 50.2589H173.38V45.0477H172.713Z" fill="white"/>
</g>
</g>
<g id="Group_51">
<g id="Group_52">
<path id="Vector_30" d="M179.875 50.2589H180.614L178.331 45.0477H177.697L175.476 50.2589H176.199L176.726 49.0158H179.342L179.875 50.2589ZM178.021 45.9487L179.083 48.413H176.981L178.021 45.9487Z" fill="white"/>
</g>
</g>
<g id="Group_53">
<g id="Group_54">
<path id="Vector_31" d="M184.907 47.6753V48.2938H187.069C186.876 49.1414 186.091 49.7064 185.1 49.7064C183.874 49.7064 183.036 48.8651 183.036 47.6596C183.036 46.4604 183.896 45.6128 185.1 45.6128C186.016 45.6128 186.791 46.112 187.023 46.8717H187.729C187.487 45.7541 186.388 44.9724 185.084 44.9724C183.501 44.9724 182.346 46.112 182.346 47.6596C182.346 49.2104 183.501 50.3468 185.1 50.3468C186.666 50.3468 187.785 49.245 187.814 47.6753H184.907Z" fill="white"/>
</g>
</g>
<g id="Group_55">
<g id="Group_56">
<path id="Vector_32" d="M190.804 49.6342V47.8825H192.992V47.2798H190.804V45.6724H193.194V45.0477H190.12V50.2589H193.279V49.6342H190.804Z" fill="white"/>
</g>
</g>
<g id="Group_57">
<g id="Group_58">
<path id="Vector_33" d="M198.798 50.2589H199.566L198.261 48.1431C198.978 47.9516 199.465 47.3771 199.465 46.6393C199.465 45.7164 198.713 45.0477 197.696 45.0477H195.632V50.2589H196.316V48.2247H197.549L198.798 50.2589ZM196.316 45.6724H197.656C198.324 45.6724 198.768 46.0806 198.768 46.6393C198.768 47.1981 198.324 47.6 197.656 47.6H196.316V45.6724Z" fill="white"/>
</g>
</g>
</g>
</g>
<defs>
<linearGradient id="paint0_linear" x1="37.1476" y1="-16.734" x2="51.7268" y2="110.766" gradientUnits="userSpaceOnUse">
<stop offset="0.197917" stop-color="#FD749B"/>
<stop offset="0.276042" stop-color="#FD749B"/>
<stop offset="0.78125" stop-color="#281AC8"/>
</linearGradient>
<linearGradient id="paint1_linear" x1="45.1397" y1="4.33607" x2="53.1695" y2="81.665" gradientUnits="userSpaceOnUse">
<stop offset="0.197917" stop-color="#FD749B"/>
<stop offset="0.276042" stop-color="#FD749B"/>
<stop offset="0.78125" stop-color="#281AC8"/>
</linearGradient>
</defs>
</svg>
