<svg width="28" height="22" viewBox="0 0 28 22" fill="none" xmlns="http://www.w3.org/2000/svg">
<path d="M0.334821 2.09263C0.260417 2.01823 0.195313 1.93452 0.139509 1.84152C0.0837054 1.74851 0.046503 1.65086 0.0279018 1.54855C0.0093006 1.44624 0 1.32999 0 1.19978C0 0.846354 0.111607 0.558036 0.334821 0.334821C0.558036 0.111607 0.846354 0 1.19978 0H26.6741C27.0275 0 27.3158 0.111607 27.5391 0.334821C27.7623 0.558036 27.8739 0.846354 27.8739 1.19978C27.8739 1.5532 27.7623 1.84617 27.5391 2.07868C27.3158 2.3112 27.0275 2.42746 26.6741 2.42746H1.19978C0.846354 2.42746 0.558036 2.31585 0.334821 2.09263ZM27.5391 10.0446C27.7623 10.2679 27.8739 10.5562 27.8739 10.9096C27.8739 11.263 27.7623 11.5513 27.5391 11.7746C27.3158 11.9978 27.0275 12.1094 26.6741 12.1094H1.19978C0.846354 12.1094 0.558036 11.9978 0.334821 11.7746C0.297619 11.7374 0.260417 11.6908 0.223214 11.635C0.186012 11.5792 0.15346 11.5234 0.125558 11.4676C0.0976562 11.4118 0.0744048 11.356 0.0558036 11.3002C0.0372024 11.2444 0.0232515 11.184 0.0139509 11.1189C0.0046503 11.0538 0 10.984 0 10.9096C0 10.5562 0.111607 10.2679 0.334821 10.0446C0.558036 9.82143 0.846354 9.70982 1.19978 9.70982H26.6741C27.0275 9.70982 27.3158 9.82143 27.5391 10.0446ZM27.5391 19.7266C27.7623 19.9498 27.8739 20.2381 27.8739 20.5915C27.8739 20.9449 27.7623 21.2379 27.5391 21.4704C27.3158 21.7029 27.0275 21.8192 26.6741 21.8192H1.19978C0.846354 21.8192 0.558036 21.7076 0.334821 21.4844C0.297619 21.4472 0.265067 21.4053 0.237165 21.3588L0.15346 21.2193L0.0837054 21.0798L0.0279018 20.9263L0 20.7729V20.5915C0 20.2381 0.111607 19.9498 0.334821 19.7266C0.558036 19.5033 0.846354 19.3917 1.19978 19.3917H26.6741C27.0089 19.3917 27.2972 19.5033 27.5391 19.7266Z" fill="black"/>
</svg>
