<svg aria-hidden="true" data-prefix="far" data-icon="user-circle" class="svg-inline--fa fa-user-circle fa-w-16" xmlns="http://www.w3.org/2000/svg" viewBox="0 0 496 512"><path fill="currentColor" d="M248 104a96 96 0 1 0 0 192 96 96 0 0 0 0-192zm0 144a48 48 0 1 1 0-96 48 48 0 0 1 0 96zm0-240a248 248 0 1 0 0 496 248 248 0 0 0 0-496zm0 448c-50 0-95-18-130-48 15-23 40-39 70-40a203 203 0 0 0 121 0c29 1 54 17 69 40-35 30-80 48-130 48zm163-84c-25-32-62-52-105-52-11 0-26 10-58 10-31 0-47-10-58-10-42 0-80 21-105 52a200 200 0 1 1 325 0z"/></svg>