<svg width="226" height="44" fill="none" xmlns="http://www.w3.org/2000/svg"><path d="M10 37v6l12-11 12 11v-6L22 25 10 37zm12-25L10 0v6l12 12L34 6V0L22 12zM45 10h-7L26 22l12 12h7L33 22l12-12zM0 10l12 12L0 34h6l12-12L6 10H0zM56 26v1c0 3 2 4 4 4 4 0 6-3 6-7s-2-7-5-7-5 2-5 4v5zm-6-5v-7h5v3c2-2 4-4 7-4 5 0 10 4 10 11 0 8-5 11-10 11-3 0-5-1-6-3v11h-6V21zM75 4h5v31h-5V4zM89 24c0 4 2 7 5 7s5-3 5-7c0-3-1-7-5-7s-5 4-5 7zm16 0c0 8-6 11-11 11-6 0-11-4-11-11s5-11 11-11c7 0 11 5 11 11zM108 20v-6h5v4c1-3 3-5 6-5h1v5h-2c-2 0-4 2-4 4l-1 2v11h-5V20zM135 22c0-2-1-5-4-5-4 0-5 3-5 5h9zm-9 4c0 3 3 5 6 5l6-1 1 4-7 1c-7 0-12-4-12-10s4-12 11-12 9 6 9 10v3h-14zM143 20v-6h5v4c1-3 4-5 6-5h1v5h-1c-3 0-5 2-5 4v13h-6V20zM173 34l-6 1c-6 0-11-4-11-10 0-7 5-11 11-11l6 1-1 2c-1-1-2-2-5-2-5 0-8 5-8 9 0 6 3 9 8 9l5-1 1 2zM177 4h2v31h-2V4zM201 30v5h-2v-4c-1 2-4 4-7 4s-8-1-8-9V14h2v12c0 4 2 7 6 7 3 0 5-2 6-4l1-2V14h2v16zM209 27v1c1 3 3 5 7 5 5 0 7-3 7-9 0-5-2-9-7-9a7 7 0 0 0-7 8v4zm-3-23h3v14c1-3 4-4 7-4 6 0 10 4 10 10 0 8-5 11-10 11-3 0-6-1-8-4v4h-2V4z" fill="gray"/></svg>